<?xml version="1.0" encoding="utf-8"?>
<!-- Generator: Adobe Illustrator 23.0.2, SVG Export Plug-In . SVG Version: 6.00 Build 0)  -->
<svg version="1.1" id="Layer_1" xmlns="http://www.w3.org/2000/svg" xmlns:xlink="http://www.w3.org/1999/xlink" x="0px" y="0px"
	 viewBox="0 0 595.28 841.89" style="enable-background:new 0 0 595.28 841.89;" xml:space="preserve">
<style type="text/css">
	.st0{fill:#B3B3B3;}
	.st1{fill:#CCCCCC;}
	.st2{fill:#C2000B;stroke:#FF0000;stroke-width:5;stroke-miterlimit:10;}
	.st3{fill:#D6A51D;stroke:#F2F91C;stroke-width:5;stroke-miterlimit:10;}
	.st4{fill:#008837;stroke:#40A629;stroke-width:5;stroke-miterlimit:10;}
</style>
<path class="st0" d="M341.48,118.54h-85.84V96.78c0-5.15,4.18-9.33,9.33-9.33h67.18c5.15,0,9.33,4.18,9.33,9.33V118.54z"/>
<path class="st1" d="M219.28,129.38H376c3.99,0,6.8,3.68,5.51,7.21l-19.21,52.82c-0.8,2.21-3.02,3.7-5.51,3.7H241.43
	c-2.4,0-4.55-1.37-5.42-3.46l-22.15-52.82C212.35,133.25,215.17,129.38,219.28,129.38z"/>
<path class="st1" d="M219.28,203.94H376c3.99,0,6.8,3.68,5.51,7.21l-19.21,52.82c-0.8,2.21-3.02,3.7-5.51,3.7H241.43
	c-2.4,0-4.55-1.37-5.42-3.46l-22.15-52.82C212.35,207.81,215.17,203.94,219.28,203.94z"/>
<rect x="292.9" y="357.33" class="st1" width="12.32" height="484.55"/>
<path class="st1" d="M219.28,278.5H376c3.99,0,6.8,3.68,5.51,7.21l-19.21,52.82c-0.8,2.21-3.02,3.7-5.51,3.7H241.43
	c-2.4,0-4.55-1.37-5.42-3.46l-22.15-52.82C212.35,282.37,215.17,278.5,219.28,278.5z"/>
<path d="M340.47,363.13H257.3c-8.97,0-16.25-7.27-16.25-16.25V122.22c0-8.97,7.27-16.25,16.25-16.25h83.17
	c8.97,0,16.25,7.27,16.25,16.25v224.66C356.72,355.86,349.44,363.13,340.47,363.13z"/>
<circle class="st2" cx="298.88" cy="161.24" r="32.73"/>
<circle class="st3" cx="298.88" cy="236.23" r="32.73"/>
<circle class="st4" cx="298.88" cy="312.09" r="32.73"/>
</svg>
